grf
version=1
nRows=11
nColumns=37
inDegrees=no
endheader
time	ground_force_1_vx	ground_force_1_vy	ground_force_1_vz	ground_force_1_px	ground_force_1_py	ground_force_1_pz	ground_moment_1_mx	ground_moment_1_my	ground_moment_1_mz	ground_force_2_vx	ground_force_2_vy	ground_force_2_vz	ground_force_2_px	ground_force_2_py	ground_force_2_pz	ground_moment_2_mx	ground_moment_2_my	ground_moment_2_mz	ground_force_3_vx	ground_force_3_vy	ground_force_3_vz	ground_force_3_px	ground_force_3_py	ground_force_3_pz	ground_moment_3_mx	ground_moment_3_my	ground_moment_3_mz	ground_force_4_vx	ground_force_4_vy	ground_force_4_vz	ground_force_4_px	ground_force_4_py	ground_force_4_pz	ground_moment_4_mx	ground_moment_4_my	ground_moment_4_mz
      0.00000000	      0.00000000	     -0.00000000	      0.00000000	      0.00000000	      0.00000000	      0.00000000	      0.00000000	      0.00000000	      0.00000000	      9.40243244	     19.40351105	   -452.07031250	   -282.47387562	  -1049.60769031	      0.00000000	      0.00000000	      0.00000000	    170.56009936	     -9.63418377	    -20.49063026	   -267.34503174	   -233.47787800	   -808.14238578	      0.00000000	      0.00000000	     -0.00000000	  -2608.51658203	      0.00000000	     -0.00000000	      0.00000000	      0.00000000	      0.00000000	      0.00000000	      0.00000000	      0.00000000	      0.00000000
      0.01000000	      0.00000000	     -0.00000000	      0.00000000	      0.00000000	      0.00000000	      0.00000000	      0.00000000	      0.00000000	      0.00000000	      9.07246780	     19.74117851	   -449.95123291	   -282.42607726	  -1048.80412564	      0.00000000	      0.00000000	      0.00000000	     74.52218963	     -9.66108214	    -20.40230857	   -266.47500610	   -232.56947259	   -810.13266136	      0.00000000	      0.00000000	     -0.00000000	  -2475.10851239	      0.00000000	     -0.00000000	      0.00000000	      0.00000000	      0.00000000	      0.00000000	      0.00000000	      0.00000000	      0.00000000
      0.02000000	      0.00000000	     -0.00000000	      0.00000000	      0.00000000	      0.00000000	      0.00000000	      0.00000000	      0.00000000	      0.00000000	      9.76696682	     19.63891029	   -451.01080322	   -282.38729222	  -1048.64807539	      0.00000000	      0.00000000	      0.00000000	    229.10408324	     -9.97879683	    -20.37557896	   -266.64617920	   -233.16018433	   -809.37825092	      0.00000000	      0.00000000	     -0.00000000	  -2382.25000597	      0.00000000	     -0.00000000	      0.00000000	      0.00000000	      0.00000000	      0.00000000	      0.00000000	      0.00000000	      0.00000000
      0.03000000	      0.00000000	     -0.00000000	      0.00000000	      0.00000000	      0.00000000	      0.00000000	      0.00000000	      0.00000000	      0.00000000	      9.82093525	     19.54667664	   -449.67471313	   -282.82556815	  -1048.10219322	      0.00000000	      0.00000000	      0.00000000	    157.99957247	     -9.81200872	    -20.19887266	   -267.23831177	   -233.68184646	   -808.47236046	      0.00000000	      0.00000000	     -0.00000000	  -2523.57165571	      0.00000000	     -0.00000000	      0.00000000	      0.00000000	      0.00000000	      0.00000000	      0.00000000	      0.00000000	      0.00000000
      0.04000000	      0.00000000	     -0.00000000	      0.00000000	      0.00000000	      0.00000000	      0.00000000	      0.00000000	      0.00000000	      0.00000000	     10.04599285	     19.40324402	   -452.26815796	   -282.69788905	  -1050.40665846	      0.00000000	      0.00000000	      0.00000000	    101.19260256	     -9.85468756	    -20.32533178	   -265.38589478	   -232.61847290	   -810.94229436	      0.00000000	      0.00000000	     -0.00000000	  -2355.94038800	      0.00000000	     -0.00000000	      0.00000000	      0.00000000	      0.00000000	      0.00000000	      0.00000000	      0.00000000	      0.00000000
      0.05000000	      0.00000000	     -0.00000000	      0.00000000	      0.00000000	      0.00000000	      0.00000000	      0.00000000	      0.00000000	      0.00000000	     10.17735958	     19.03193855	   -452.25720215	   -282.72040068	  -1049.42412962	      0.00000000	      0.00000000	      0.00000000	    233.66573693	     -9.76575266	    -20.35278616	   -265.78106689	   -232.85155050	   -810.33602719	      0.00000000	      0.00000000	     -0.00000000	  -2453.52226091	      0.00000000	     -0.00000000	      0.00000000	      0.00000000	      0.00000000	      0.00000000	      0.00000000	      0.00000000	      0.00000000
      0.06000000	      0.00000000	     -0.00000000	      0.00000000	      0.00000000	      0.00000000	      0.00000000	      0.00000000	      0.00000000	      0.00000000	     10.45917511	     19.64318275	   -452.74826050	   -283.46319809	  -1049.23727931	      0.00000000	      0.00000000	      0.00000000	    462.87959405	    -10.01198279	    -20.33362301	   -266.67422485	   -232.60511061	   -810.02091503	      0.00000000	      0.00000000	     -0.00000000	  -2444.32499037	      0.00000000	     -0.00000000	      0.00000000	      0.00000000	      0.00000000	      0.00000000	      0.00000000	      0.00000000	      0.00000000
      0.07000000	      0.00000000	     -0.00000000	      0.00000000	      0.00000000	      0.00000000	      0.00000000	      0.00000000	      0.00000000	      0.00000000	     10.73308277	     19.67042542	   -452.91278076	   -282.89279287	  -1048.73598761	      0.00000000	      0.00000000	      0.00000000	    345.44323115	    -10.24324694	    -20.81685358	   -266.83065796	   -232.49180077	   -810.36488741	      0.00000000	      0.00000000	     -0.00000000	  -2420.95987616	      0.00000000	     -0.00000000	      0.00000000	      0.00000000	      0.00000000	      0.00000000	      0.00000000	      0.00000000	      0.00000000
      0.08000000	      0.00000000	     -0.00000000	      0.00000000	      0.00000000	      0.00000000	      0.00000000	      0.00000000	      0.00000000	      0.00000000	     10.48583031	     19.25216675	   -452.39672852	   -282.64605559	  -1049.35146035	      0.00000000	      0.00000000	      0.00000000	    189.94510991	    -10.01735103	    -20.47044285	   -268.52502441	   -232.48527952	   -808.95203197	      0.00000000	      0.00000000	     -0.00000000	  -2610.29096796	      0.00000000	     -0.00000000	      0.00000000	      0.00000000	      0.00000000	      0.00000000	      0.00000000	      0.00000000	      0.00000000
      0.09000000	      0.00000000	     -0.00000000	      0.00000000	      0.00000000	      0.00000000	      0.00000000	      0.00000000	      0.00000000	      0.00000000	     10.38910866	     19.08047104	   -451.55606079	   -282.77746418	  -1048.30741376	      0.00000000	      0.00000000	      0.00000000	    192.50027569	    -10.08572092	    -20.76234539	   -267.42346191	   -231.62011300	   -810.31717836	      0.00000000	      0.00000000	     -0.00000000	  -2349.54083555	      0.00000000	     -0.00000000	      0.00000000	      0.00000000	      0.00000000	      0.00000000	      0.00000000	      0.00000000	      0.00000000
      0.10000000	      0.00000000	     -0.00000000	      0.00000000	      0.00000000	      0.00000000	      0.00000000	      0.00000000	      0.00000000	      0.00000000	     10.19761944	     19.75301170	   -451.49844360	   -283.10077858	  -1049.62901373	      0.00000000	      0.00000000	      0.00000000	    197.77153898	     -9.96299540	    -20.34777745	   -267.34234619	   -232.46124913	   -811.36502440	      0.00000000	      0.00000000	     -0.00000000	  -2476.42036611	      0.00000000	     -0.00000000	      0.00000000	      0.00000000	      0.00000000	      0.00000000	      0.00000000	      0.00000000	      0.00000000
